<svg width="72" height="72" viewBox="0 0 64 64" fill="none" xmlns="http://www.w3.org/2000/svg" style="display:inline-block;vertical-align:middle"><ellipse cx="17" cy="24" rx="15" ry="7.5" fill="#2EC4B6" opacity=".35" transform="rotate(-24 17 24)"/><ellipse cx="17" cy="24" rx="15" ry="7.5" stroke="#2EC4B6" stroke-width="1.4" opacity=".85" transform="rotate(-24 17 24)"/><ellipse cx="47" cy="24" rx="15" ry="7.5" fill="#7B2FBE" opacity=".3" transform="rotate(24 47 24)"/><ellipse cx="47" cy="24" rx="15" ry="7.5" stroke="#7B2FBE" stroke-width="1.4" opacity=".8" transform="rotate(24 47 24)"/><ellipse cx="18" cy="34" rx="11" ry="5.5" fill="#2EC4B6" opacity=".25" transform="rotate(-10 18 34)"/><ellipse cx="46" cy="34" rx="11" ry="5.5" fill="#7B2FBE" opacity=".22" transform="rotate(10 46 34)"/><ellipse cx="32" cy="42" rx="4.6" ry="7" fill="#1A9E92"/><ellipse cx="32" cy="52" rx="3.4" ry="5.4" fill="#2EC4B6"/><ellipse cx="32" cy="59" rx="2.4" ry="3.4" fill="#7B2FBE"/><path d="M27 10 Q24 5 20.5 4.5" stroke="#1A9E92" stroke-width="1.6" stroke-linecap="round" fill="none"/><path d="M37 10 Q40 5 43.5 4.5" stroke="#1A9E92" stroke-width="1.6" stroke-linecap="round" fill="none"/><circle cx="20" cy="4.3" r="1.7" fill="#7B2FBE"/><circle cx="44" cy="4.3" r="1.7" fill="#7B2FBE"/><circle cx="32" cy="22" r="13" fill="#1A9E92"/><ellipse cx="27" cy="21" rx="4.2" ry="4.8" fill="#FFFFFF"/><ellipse cx="37" cy="21" rx="4.2" ry="4.8" fill="#FFFFFF"/><circle cx="27.8" cy="22" r="2.3" fill="#0D1B2A"/><circle cx="37.8" cy="22" r="2.3" fill="#0D1B2A"/><circle cx="28.7" cy="21" r=".8" fill="#FFFFFF"/><circle cx="38.7" cy="21" r=".8" fill="#FFFFFF"/><circle cx="23" cy="27" r="1.8" fill="#F49AC1" opacity=".55"/><circle cx="41" cy="27" r="1.8" fill="#F49AC1" opacity=".55"/><path d="M29 28.5 Q32 31 35 28.5" stroke="#0D1B2A" stroke-width="1.5" stroke-linecap="round" fill="none"/></svg>